<svg width="50" height="54" viewBox="0 0 50 54" fill="none" xmlns="http://www.w3.org/2000/svg">
<g clip-path="url(#clip0_7_108)">
<path d="M25.2864 34.5453L24.6803 34.2987L14.1511 29.9162C14.1511 29.9162 13.9441 29.8315 13.9293 29.5923V38.9536C13.9293 39.075 14.0033 39.1817 14.1141 39.2296L49.9963 54V44.5909L25.2827 34.5453H25.2864Z" fill="url(#paint0_linear_7_108)"/>
<path d="M13.933 29.585V29.5923C13.933 29.7248 14.0106 29.8536 14.1548 29.9162L24.684 34.2987L36.0744 29.6549V20.2348L14.1548 29.2575H14.1474C14.14 29.2575 14.14 29.2649 14.1326 29.2649C14.1178 29.2722 14.0919 29.2869 14.0587 29.3127L14.0217 29.3495C14.0069 29.3642 13.9959 29.3826 13.9848 29.401C13.9774 29.4084 13.97 29.4231 13.97 29.4378C13.9626 29.4562 13.9515 29.4783 13.9478 29.5004C13.9404 29.5261 13.9367 29.5519 13.9367 29.585H13.933Z" fill="url(#paint1_linear_7_108)"/>
<path d="M0 24.3598V33.7688L35.8822 18.9984C35.993 18.9506 36.067 18.8402 36.067 18.7224V9.36121C36.0522 9.60407 35.8452 9.68502 35.8452 9.68502L25.316 14.0676L24.7099 14.3141L0 24.3598Z" fill="url(#paint2_linear_7_108)"/>
<path d="M36.067 9.35019V9.35755C36.067 9.49002 35.9894 9.61881 35.8452 9.68136L25.316 14.0639L13.9256 9.4201V0L35.8452 9.02269H35.8526C35.86 9.02269 35.86 9.03005 35.8674 9.03005C35.8822 9.03741 35.9081 9.05213 35.9413 9.07789L35.9783 9.11469C35.9931 9.1294 36.0041 9.1478 36.0152 9.1662C36.0226 9.17356 36.03 9.18828 36.03 9.203C36.0374 9.2214 36.0485 9.24347 36.0522 9.26555C36.0596 9.29131 36.0633 9.31707 36.0633 9.35019H36.067Z" fill="url(#paint3_linear_7_108)"/>
</g>
<defs>
<linearGradient id="paint0_linear_7_108" x1="50" y1="41.798" x2="7.29174" y2="41.798" gradientUnits="userSpaceOnUse">
<stop stop-color="#BC8487"/>
<stop offset="0.8" stop-color="#EFD4D4"/>
<stop offset="0.9" stop-color="#FAF3F3"/>
<stop offset="1" stop-color="white"/>
</linearGradient>
<linearGradient id="paint1_linear_7_108" x1="20.8552" y1="36.0907" x2="36.8101" y2="10.763" gradientUnits="userSpaceOnUse">
<stop stop-color="#BC8487"/>
<stop offset="0.4" stop-color="#D09C9E"/>
<stop offset="0.7" stop-color="#DEACAD"/>
<stop offset="1" stop-color="#E3B2B3"/>
</linearGradient>
<linearGradient id="paint2_linear_7_108" x1="0" y1="21.5632" x2="42.7046" y2="21.5632" gradientUnits="userSpaceOnUse">
<stop stop-color="#BC8487"/>
<stop offset="0.8" stop-color="#E3B2B3"/>
<stop offset="1" stop-color="white"/>
</linearGradient>
<linearGradient id="paint3_linear_7_108" x1="29.1448" y1="15.8596" x2="13.1899" y2="-9.47176" gradientUnits="userSpaceOnUse">
<stop stop-color="#BC8487"/>
<stop offset="0.4" stop-color="#D09C9E"/>
<stop offset="0.7" stop-color="#DEACAD"/>
<stop offset="1" stop-color="#E3B2B3"/>
</linearGradient>
<clipPath id="clip0_7_108">
<rect width="50" height="54" fill="white"/>
</clipPath>
</defs>
</svg>
