<svg width="16" height="16" viewBox="0 0 16 16" fill="none" xmlns="http://www.w3.org/2000/svg">
<g clip-path="url(#clip0_90_121)">
<path d="M4.66667 3.33332C4.66667 1.86056 5.86057 0.666656 7.33333 0.666656C8.80607 0.666656 10 1.86056 10 3.33332H13.3333C13.7015 3.33332 14 3.6318 14 3.99999V6.78046C14 6.99686 13.8949 7.19979 13.7183 7.32479C13.5415 7.44972 13.3152 7.48112 13.1112 7.40899C12.973 7.36019 12.8237 7.33332 12.6667 7.33332C11.9303 7.33332 11.3333 7.93026 11.3333 8.66666C11.3333 9.40306 11.9303 9.99999 12.6667 9.99999C12.8237 9.99999 12.973 9.97312 13.1112 9.92432C13.3152 9.85219 13.5415 9.88359 13.7183 10.0085C13.8949 10.1335 14 10.3365 14 10.5529V13.3333C14 13.7015 13.7015 14 13.3333 14H2.66667C2.29848 14 2 13.7015 2 13.3333V3.99999C2 3.6318 2.29848 3.33332 2.66667 3.33332H4.66667ZM7.33333 1.99999C6.59695 1.99999 6 2.59694 6 3.33332C6 3.49035 6.02687 3.63967 6.0757 3.77782C6.14781 3.98187 6.11641 4.20822 5.99145 4.38492C5.86649 4.56161 5.66355 4.66666 5.44714 4.66666H3.33333V12.6667H12.6667V11.3333C11.1939 11.3333 10 10.1394 10 8.66666C10 7.19392 11.1939 5.99999 12.6667 5.99999V4.66666H9.21953C9.00313 4.66666 8.8002 4.56161 8.6752 4.38492C8.55027 4.20822 8.51887 3.98187 8.591 3.77782C8.6398 3.63967 8.66667 3.49036 8.66667 3.33332C8.66667 2.59694 8.06973 1.99999 7.33333 1.99999Z" fill="#CDCDCD"/>
</g>
<defs>
<clipPath id="clip0_90_121">
<rect width="16" height="16" fill="white"/>
</clipPath>
</defs>
</svg>
