<svg width="16" height="16" viewBox="0 0 16 16" fill="none" xmlns="http://www.w3.org/2000/svg">
<path d="M3.33329 13.3333H12.6666V14.6667H3.33329V13.3333ZM7.99996 12C5.05444 12 2.66663 9.61221 2.66663 6.66668C2.66663 3.72116 5.05444 1.33334 7.99996 1.33334C10.9455 1.33334 13.3333 3.72116 13.3333 6.66668C13.3333 9.61221 10.9455 12 7.99996 12ZM7.99996 10.6667C10.2091 10.6667 12 8.87581 12 6.66668C12 4.45754 10.2091 2.66668 7.99996 2.66668C5.79082 2.66668 3.99996 4.45754 3.99996 6.66668C3.99996 8.87581 5.79082 10.6667 7.99996 10.6667Z" fill="#AAAAAA"/>
</svg>
