<svg width="12" height="12" viewBox="0 0 12 12" fill="none" xmlns="http://www.w3.org/2000/svg">
<path d="M10.8 6C10.8 3.34903 8.65098 1.2 6 1.2C3.34903 1.2 1.2 3.34903 1.2 6C1.2 8.65098 3.34903 10.8 6 10.8C6.98508 10.8 7.90086 10.5032 8.66286 9.99426L9.32856 10.9928C8.37612 11.6291 7.23138 12 6 12C2.68629 12 0 9.31368 0 6C0 2.68629 2.68629 0 6 0C9.31368 0 12 2.68629 12 6V6.9C12 8.0598 11.0598 9 9.9 9C9.17748 9 8.54016 8.63508 8.16228 8.07954C7.61652 8.6469 6.84948 9 6 9C4.34315 9 3 7.65684 3 6C3 4.34315 4.34315 3 6 3C6.67548 3 7.29882 3.22325 7.8003 3.6H9V6.9C9 7.39704 9.40296 7.8 9.9 7.8C10.397 7.8 10.8 7.39704 10.8 6.9V6ZM6 4.2C5.00586 4.2 4.2 5.00586 4.2 6C4.2 6.99414 5.00586 7.8 6 7.8C6.99414 7.8 7.8 6.99414 7.8 6C7.8 5.00586 6.99414 4.2 6 4.2Z" fill="#CDCDCD"/>
</svg>
