<svg width="14" height="14" viewBox="0 0 14 14" fill="none" xmlns="http://www.w3.org/2000/svg">
<path d="M0 0.740556C0 0.331562 0.331562 0 0.740556 0H5.18389C5.5929 0 5.92444 0.331562 5.92444 0.740556V5.18389C5.92444 5.5929 5.5929 5.92444 5.18389 5.92444H0.740556C0.331562 5.92444 0 5.5929 0 5.18389V0.740556ZM0 8.14611C0 7.7371 0.331562 7.40556 0.740556 7.40556H5.18389C5.5929 7.40556 5.92444 7.7371 5.92444 8.14611V12.5894C5.92444 12.9985 5.5929 13.33 5.18389 13.33H0.740556C0.331562 13.33 0 12.9985 0 12.5894V8.14611ZM7.40556 0.740556C7.40556 0.331562 7.7371 0 8.14611 0H12.5894C12.9985 0 13.33 0.331562 13.33 0.740556V5.18389C13.33 5.5929 12.9985 5.92444 12.5894 5.92444H8.14611C7.7371 5.92444 7.40556 5.5929 7.40556 5.18389V0.740556ZM7.40556 8.14611C7.40556 7.7371 7.7371 7.40556 8.14611 7.40556H12.5894C12.9985 7.40556 13.33 7.7371 13.33 8.14611V12.5894C13.33 12.9985 12.9985 13.33 12.5894 13.33H8.14611C7.7371 13.33 7.40556 12.9985 7.40556 12.5894V8.14611ZM8.88667 1.48111V4.44333H11.8489V1.48111H8.88667ZM8.88667 8.88667V11.8489H11.8489V8.88667H8.88667ZM1.48111 1.48111V4.44333H4.44333V1.48111H1.48111ZM1.48111 8.88667V11.8489H4.44333V8.88667H1.48111Z" fill="#CDCDCD"/>
</svg>
