<svg width="10" height="9" viewBox="0 0 10 9" fill="none" xmlns="http://www.w3.org/2000/svg">
<path d="M6.19048 1.09687C6.83152 1.09687 7.35119 0.605785 7.35119 0H7.8869C7.8869 0.605785 8.40657 1.09687 9.04762 1.09687V1.60312C8.40657 1.60312 7.8869 2.09421 7.8869 2.7H7.35119C7.35119 2.09421 6.83152 1.60312 6.19048 1.60312V1.09687ZM0 4.05C1.57796 4.05 2.85714 2.84117 2.85714 1.35H3.80952C3.80952 2.84117 5.08871 4.05 6.66667 4.05V4.95C5.08871 4.95 3.80952 6.15883 3.80952 7.65H2.85714C2.85714 6.15883 1.57796 4.95 0 4.95V4.05ZM1.84572 4.5C2.47008 4.82742 2.98687 5.31576 3.33333 5.9058C3.6798 5.31576 4.19659 4.82742 4.82095 4.5C4.19659 4.17258 3.6798 3.68424 3.33333 3.0942C2.98687 3.68424 2.47008 4.17258 1.84572 4.5ZM7.7381 5.4C7.7381 6.20771 7.04519 6.8625 6.19048 6.8625V7.5375C7.04519 7.5375 7.7381 8.1923 7.7381 9H8.45238C8.45238 8.1923 9.14529 7.5375 10 7.5375V6.8625C9.14529 6.8625 8.45238 6.20771 8.45238 5.4H7.7381Z" fill="#CDCDCD"/>
</svg>
